<?xml version="1.0" encoding="UTF-8"?>
<svg width="72px" height="68px" viewBox="0 0 72 68" version="1.1" xmlns="http://www.w3.org/2000/svg" xmlns:xlink="http://www.w3.org/1999/xlink">
    <!-- Generator: Sketch 47.1 (45422) - http://www.bohemiancoding.com/sketch -->
    <title>Group</title>
    <desc>Created with Sketch.</desc>
    <defs></defs>
    <g id="Page-1" stroke="none" stroke-width="1" fill="none" fill-rule="evenodd">
        <g id="Desktop-HD" transform="translate(-1005.000000, -441.000000)" fill-rule="nonzero" fill="#7EB334">
            <g id="Group" transform="translate(1005.000000, 441.000000)">
                <path d="M47.3847058,18.7996117 C47.6518919,19.0667961 48.0822092,19.0667961 48.3465585,18.7996117 L51.2799965,15.8718078 C51.7384371,15.41337 52,14.7890013 52,14.1336582 C52,13.4811591 51.7412452,12.856812 51.2799965,12.3955086 L49.6037565,10.719279 C48.6447119,9.76024034 47.0893604,9.76024034 46.1303158,10.719279 L43.1996858,13.6526989 C43.0703083,13.7820755 43,13.9536369 43,14.1336366 C43,14.3136364 43.0731236,14.4880129 43.1996858,14.6145743 L47.3847058,18.7996117 Z" id="Shape"></path>
                <path d="M40.3847058,24.7996117 C40.6518919,25.0667961 41.0822092,25.0667961 41.3465585,24.7996117 L44.2799965,21.8689998 C44.7412452,21.407754 45,20.7861933 45,20.1308502 C45,19.4783511 44.7440604,18.854004 44.2799965,18.3927007 L42.6065645,16.719279 C41.6447119,15.7602403 40.0921684,15.7602403 39.1331238,16.719279 L36.1996858,19.6498909 C36.0703083,19.7792675 36,19.9508289 36,20.1308286 C36,20.3108284 36.0703127,20.4852049 36.1996858,20.6117663 L40.3847058,24.7996117 Z" id="Shape"></path>
                <path d="M55.200499,14.6158866 L59.384995,18.7995413 C59.652327,19.0668196 60.0828792,19.0668196 60.3501824,18.7995413 L63.2796033,15.8707093 C63.7411111,15.4121106 64,14.7875226 64,14.1319494 C64,13.4792212 63.7411111,12.8546549 63.2796033,12.3931895 L61.6052575,10.7191803 C60.6456891,9.75980487 59.0894883,9.75980487 58.1327295,10.7219936 L55.200499,13.6508256 C54.933167,13.9181038 54.933167,14.3485695 55.200499,14.6158189 L55.200499,14.6158866 Z" id="Shape"></path>
                <path d="M55.6084088,16.7205059 C54.6486886,15.7603013 53.0922414,15.7603013 52.1353311,16.7176894 L49.1998264,19.6490527 C49.0703579,19.7785866 49,19.9503566 49,20.1305751 C49,20.3107937 49.0731751,20.4853823 49.1998264,20.6120975 L53.3877949,24.7993681 C53.6551692,25.0668773 54.0857896,25.0668773 54.3503251,24.7993681 L57.2802098,21.8680048 C58.2399301,20.9078002 58.2399301,19.3505675 57.2802098,18.3931743 L55.6084088,16.7205059 Z" id="Shape"></path>
                <path d="M53.3892344,12.8015458 C53.6537162,13.0661514 54.0870113,13.0661514 54.3514643,12.8015458 L57.2804345,9.86839381 C58.2398552,8.90852391 58.2398552,7.351834 57.2804345,6.39196409 L55.6035371,4.71990243 C54.6469255,3.76003252 53.0937732,3.76003252 52.1343525,4.71990243 L49.1997641,7.650244 C49.0703359,7.77973276 49,7.95144282 49,8.13159858 C49,8.31457198 49.0731522,8.48628204 49.1997641,8.61295316 L53.3892344,12.8015458 Z" id="Shape"></path>
                <path d="M30.6037034,28.7195655 C29.6443608,27.7601448 28.0885261,27.7601448 27.1291835,28.7195655 L24.2004518,31.6485357 C23.9331827,31.9158266 23.9331827,32.3491289 24.2004518,32.6135747 L28.3839633,36.8002359 C28.5133809,36.9268478 28.6849966,37 28.8678623,37 C29.045103,37 29.2195348,36.9268478 29.3489525,36.8002359 L32.2804931,33.8656475 C33.2398356,32.9062268 33.2398356,31.3502654 32.2804931,30.3936538 L30.6037034,28.7195655 Z" id="Shape"></path>
                <path d="M49.6052416,22.7197902 C48.6456756,21.7600699 47.0894785,21.7600699 46.1299124,22.7197902 L43.2004985,25.6496749 C42.9331672,25.9170492 42.9331672,26.3476696 43.2004985,26.6150151 L47.3849844,30.8001736 C47.5144322,30.9296421 47.6860879,31 47.8661866,31 C48.0462854,31 48.2207578,30.9268249 48.3473888,30.8001736 L51.2824218,27.8674789 C51.7411117,27.4087153 52,26.7839028 52,26.128094 C52,25.4751312 51.7439212,24.8503403 51.2824218,24.3887091 L49.6052416,22.7197902 Z" id="Shape"></path>
                <path d="M24.6065645,35.7197316 C23.6475199,34.7600895 22.0921684,34.7600895 21.1331238,35.7197316 L18.1996858,38.6521874 C18.0703083,38.7816454 18,38.9533147 18,39.1334277 C18,39.3135407 18.0703127,39.488027 18.1996858,39.614668 L22.3847058,43.7994856 C22.6518919,44.0668381 23.0822092,44.0668381 23.3493665,43.7994856 L26.2799965,40.8698395 C26.7384371,40.4111133 27,39.7863518 27,39.1305963 C27,38.4776867 26.7384371,37.8529467 26.2799965,37.3913531 L24.6065645,35.7197316 Z" id="Shape"></path>
                <path d="M18.6065843,41.7202282 C18.1451924,41.2616445 17.5234347,41 16.8678839,41 C16.2151781,41 15.593442,41.2560195 15.1291835,41.7202282 L12.2004518,44.6517729 C11.9331827,44.9162335 11.9331827,45.3494939 12.2004518,45.6167346 L16.3867722,49.8002519 C16.5161898,49.9296697 16.6878055,50 16.8678623,50 C17.0479191,50 17.2223509,49.9296654 17.3489525,49.8002519 L20.2804931,46.8658983 C21.2398356,45.9065544 21.2398356,44.3535264 20.2804931,43.3941825 L18.6065843,41.7202282 Z" id="Shape"></path>
                <path d="M30.2026344,26.6174893 L34.3861149,30.8016252 C34.653382,31.0661249 35.0838298,31.0661249 35.3510681,30.8016252 L38.2797782,27.869647 C38.7383578,27.4109955 39,26.7863357 39,26.1334964 C39,25.4835096 38.7411739,24.8588642 38.2797782,24.3945365 L36.6058386,22.7203347 C36.147259,22.2588739 35.5198881,22 34.8671511,22 C34.2172661,22 33.5927186,22.2560574 33.1312724,22.7203347 L30.2025624,25.6523129 C29.9324792,25.9196219 29.9324792,26.3529536 30.2025624,26.6174173 L30.2026344,26.6174893 Z" id="Shape"></path>
                <path d="M42.603247,28.7200029 C42.1447007,28.2587474 41.5201841,28 40.8646857,28 C40.2120321,28 39.5875371,28.2615626 39.1261245,28.7200029 L36.2004358,31.6478226 C35.9331881,31.9150085 35.9331881,32.3481406 36.2004358,32.6124824 L40.3836125,36.7974992 C40.5130198,36.9268765 40.6846218,37 40.8646641,37 C41.0447065,37 41.2191244,36.9268765 41.3457158,36.8003144 L44.2798305,33.8668787 C44.7383768,33.4056304 45,32.7812583 45,32.1287197 C45,31.4761811 44.7411855,30.8518666 44.2798305,30.3905608 L42.603247,28.7200029 Z" id="Shape"></path>
                <path d="M71.9378208,30.1176483 C71.76064,29.5642907 71.2487749,29.1934801 70.6722336,29.1934801 C70.6356721,29.1934801 70.5991121,29.1962889 70.5625513,29.1990983 C70.1181846,29.2384229 65.3736295,29.6681863 58.9895348,31.2917798 C61.0848311,28.1345647 62.9184854,24.9576467 64.4006436,21.8760793 C68.8695818,12.6092294 69.4433368,5.62331752 66.0290305,2.2134159 C64.560912,0.741520572 62.4459601,0 59.7460216,0 C52.3748294,0 40.5598985,5.86500203 29.7399848,14.4830933 C31.0871461,9.18544946 31.447138,5.25291678 31.4780972,4.8847452 C31.5287207,4.26958945 31.1490431,3.69940529 30.5584622,3.51114881 C29.9678524,3.32294985 29.3266422,3.57294554 29.0144573,4.10664476 C28.9300825,4.24708928 20.7598453,18.1482198 9.87585313,29.9376203 C1.40740595,39.1059556 0.0437570037,47.1647425 5.75560295,54.4792763 L0.653871111,59.5774459 C-0.217957037,60.4481861 -0.217957037,61.8611164 0.653871111,62.7290522 L5.27753383,67.3469449 C6.14655404,68.217685 7.56124983,68.217685 8.43307798,67.3469449 L14.1817151,61.6026772 C16.7185053,62.9846869 19.3059824,63.6672425 21.9949772,63.6672425 C27.6845036,63.6672425 33.6551117,60.7122341 40.2588013,54.6283426 C54.4417584,41.5640042 71.1734574,31.7549641 71.3419336,31.6571686 C71.8819213,31.3481849 72.1237638,30.7077605 71.9381664,30.117895 L71.9378208,30.1176483 Z M34.7463476,19.1264323 C35.0135263,19.3932776 35.4438317,19.3932776 35.7081737,19.1264323 L38.638723,16.2023446 C39.5977412,15.2445232 39.5977412,13.6911555 38.638723,12.7333342 L37.7809345,11.8766162 C38.1943635,11.5985316 38.6049558,11.3260702 39.0212503,11.0564277 L40.922439,12.9552438 C41.0518129,13.0844562 41.2233705,13.1546749 41.4033665,13.1546749 C41.5833624,13.1546749 41.7577352,13.0844512 41.8842939,12.9552438 L44.8176511,10.0283517 C45.5460585,9.29804884 45.7204386,8.2222256 45.3351393,7.3317825 C45.8498124,7.06212558 46.3560761,6.80089634 46.8622966,6.54812354 L47.0957296,6.78406975 C47.2251035,6.91328215 47.3966612,6.98350081 47.5766571,6.98350081 C47.7538379,6.98350081 47.9282107,6.91047053 48.0575845,6.78406975 L49.5481666,5.29534783 C51.7840757,4.32343239 53.8962196,3.59312954 55.8058321,3.14931021 L59.4423253,6.78126532 C59.709504,7.04811061 60.1398094,7.04811061 60.4069593,6.78126532 L63.5878469,3.6071517 C63.7931574,3.74759622 63.9787764,3.90489609 64.1531492,4.07623969 C64.3190839,4.24477886 64.4765803,4.43297062 64.6115772,4.63802494 L61.4334976,7.80933412 C61.3041237,7.93854652 61.2338173,8.10989012 61.2338173,8.2896614 C61.2338173,8.4722443 61.304128,8.6435879 61.4334976,8.76998869 L65.0727987,12.4047482 C64.6481236,14.2699112 63.9450164,16.3541075 62.9775024,18.6040529 L61.4306896,20.1433265 C61.3013158,20.2725389 61.2310094,20.4438825 61.2310094,20.6236538 C61.2310094,20.8034251 61.3013201,20.9775803 61.4306896,21.1039811 L61.6922453,21.3652103 C61.4447509,21.868009 61.1831953,22.3679745 60.9160309,22.879244 C60.6038533,22.741604 60.2663609,22.6685737 59.9232456,22.6685737 C59.2707604,22.6685737 58.6464266,22.9241869 58.1851331,23.3876588 L55.2573918,26.3145509 C54.9902131,26.5813962 54.9902131,27.0111647 55.2573918,27.2779812 L57.1755001,29.1908914 C56.9083214,29.6038045 56.6326973,30.0138843 56.3514789,30.4296593 L55.4824587,29.5589192 C55.0240307,29.1010633 54.3996753,28.8426457 53.7443462,28.8426457 C53.0946762,28.8426457 52.4703353,29.0982589 52.0090418,29.5589192 L49.0756846,32.4886158 C48.9463107,32.6178282 48.8760043,32.7891718 48.8760043,32.968943 C48.8760043,33.1515259 48.9491258,33.3228695 49.0756846,33.4492703 L49.8210116,34.1936672 C49.146027,34.4577081 48.4654264,34.7329811 47.782018,35.022269 C47.0845339,34.960473 46.3645143,35.1936126 45.8302145,35.7273104 L45.5377211,36.0222504 C43.4453048,37.0025791 41.3556243,38.1149319 39.3278625,39.3845485 C39.400984,38.6766955 39.164743,37.9407694 38.6219402,37.4014556 L36.9485543,35.730158 C36.4901263,35.2723021 35.8657709,35.0110729 35.2104419,35.0110729 C34.5607719,35.0110729 33.9364309,35.2694977 33.4751374,35.730158 L30.5445881,38.6542457 C30.2774094,38.921091 30.2774094,39.3508594 30.5445881,39.6176759 L34.0966992,43.1653543 C33.6945236,43.4996138 33.2979494,43.8507287 32.9013824,44.2018436 C32.788885,43.9743178 32.6370117,43.760843 32.4457696,43.5726441 L30.7723837,41.898542 C29.8133656,40.9407206 28.258057,40.9407206 27.2990388,41.898542 L24.3684895,44.8282386 C24.1013108,45.0950839 24.1013108,45.5248523 24.3684895,45.7888644 L27.7406047,49.1567715 C27.3496753,49.4994587 26.9643904,49.8252977 26.5846711,50.1342958 C26.4946731,49.9938513 26.3877988,49.8674505 26.2668631,49.7466657 L24.5934772,48.0753681 C24.1322413,47.6147078 23.5078859,47.356283 22.8553648,47.356283 C22.2028436,47.356283 21.5785459,47.6147078 21.1172524,48.0753681 L18.189511,51.0022603 C17.9223323,51.2691056 17.9223323,51.698874 18.189511,51.9628861 L20.3804211,54.1538665 C19.8854324,54.3870083 19.4016754,54.5920626 18.937646,54.7718339 L18.4370342,54.2437522 C17.9757983,53.7830918 17.3542508,53.524667 16.6989218,53.524667 C16.0548748,53.524667 15.4333346,53.7802802 14.974921,54.23252 L13.9455605,53.2016396 C14.8933469,52.2438182 14.8905389,50.7016683 13.93431,49.7466514 L12.2609241,48.0725493 C11.8024961,47.6146934 11.1781408,47.3534642 10.5228117,47.3534642 C10.4609384,47.3534642 10.3934378,47.3562737 10.3287545,47.3618911 C11.4199616,44.8057593 13.4983383,41.6625663 17.289556,38.0051556 C19.311702,36.0557878 21.0498144,33.8704162 22.5432044,31.5755279 C22.6444485,31.6317065 22.759761,31.6654136 22.8722585,31.6654136 C23.0550695,31.6654136 23.2294351,31.5923833 23.3560011,31.4659825 L26.2865503,28.5362859 C27.2427606,27.5784646 27.2427606,26.0279013 26.2837381,25.07008 L26.145926,24.9268238 C26.3624827,24.4464965 26.5706012,23.9690024 26.7646655,23.491458 L28.5702404,25.2919752 C28.8374191,25.5588205 29.2677245,25.5588205 29.5348745,25.2919752 L32.4654237,22.3678875 C32.9238517,21.9100316 33.1825922,21.2864554 33.1825922,20.6319441 C33.1825922,19.9830849 32.9238445,19.359523 32.4654237,18.8960008 L30.6879282,17.1235998 C31.0676044,16.8146161 31.4501028,16.5112556 31.8325581,16.2107212 L34.7463476,19.1264323 Z" id="Shape"></path>
            </g>
        </g>
    </g>
</svg>