<?xml version="1.0" encoding="UTF-8"?>
<svg width="367px" height="124px" viewBox="0 0 367 124" version="1.1" xmlns="http://www.w3.org/2000/svg" xmlns:xlink="http://www.w3.org/1999/xlink">
    <!-- Generator: Sketch 47.1 (45422) - http://www.bohemiancoding.com/sketch -->
    <title>Page 1</title>
    <desc>Created with Sketch.</desc>
    <defs>
        <polygon id="path-1" points="0 124 367 124 367 0 0 0"></polygon>
    </defs>
    <g id="Page-1" stroke="none" stroke-width="1" fill="none" fill-rule="evenodd">
        <g id="Desktop-HD" transform="translate(-537.000000, -105.000000)">
            <g id="Page-1" transform="translate(537.000000, 105.000000)">
                <path d="M44,43.7751049 C44,47.5345982 42.6126836,50.7550765 39.8394124,53.4365399 C37.5576241,55.6239062 34.5365691,57.3185366 30.7762475,58.5204311 C27.6939273,59.5072641 24.7504749,60 21.9458903,60 C19.6954154,60 17.1672049,59.8148837 14.3626203,59.4460124 C11.5566743,59.0744187 8.69082447,58.7055474 5.76370947,58.3353149 C5.36208207,58.3353149 5.02988855,58.3584544 4.76849037,58.4047335 C4.5070922,58.4510125 4.19804331,58.5898497 3.84406662,58.821245 C3.49008992,59.0526404 3.14292047,59.2894803 2.80391971,59.5372094 L1,40.4008167 L2.66505193,40.2157004 C2.75763045,41.1385594 3.14292047,42.4030668 3.82092199,44.005139 C4.68408055,46.0713631 5.68474544,47.7047418 6.82563956,48.9066363 C8.45937817,50.631212 10.393997,51.956971 12.6294959,52.87983 C14.8636335,53.8054113 17.0446745,54.2682019 19.1712576,54.2682019 C21.5129496,54.2682019 23.5183637,53.7591322 25.1820542,52.742354 C26.8457447,51.7255757 27.8641084,50.2922859 28.233061,48.4438457 C28.2943262,48.1661713 28.3256396,47.7809661 28.3256396,47.2882302 C28.3256396,46.1475874 27.9948075,45.1539487 27.3317819,44.3059529 C26.6687563,43.4593183 25.7838146,42.8495236 24.6728723,42.4806522 L12.4674835,38.4584572 C9.53764564,37.5042918 7.25721884,36.0859746 5.62348024,34.206228 C3.83589792,32.141365 2.94278749,29.6450179 2.94278749,26.7171866 C2.94278749,22.6800189 4.51526089,19.2594517 7.65884625,16.4554849 C10.4634309,13.9591378 14.1461499,12.2481736 18.708365,11.3239534 C19.8179458,11.1088919 20.9901532,11 22.2222644,11 C23.8260512,11 25.6136335,11.2000889 27.5863728,11.6002667 C29.5591122,12.0018056 31.5931168,12.4033445 33.689748,12.8035223 C33.9361702,12.8035223 34.1049899,12.7871885 34.1975684,12.7572433 C34.8755699,12.572127 35.5848848,12.2944526 36.3255129,11.9255813 C36.8796226,11.5866552 37.3112019,11.3402872 37.6188893,11.1851163 L39.1913627,26.209478 L37.5276722,26.7171866 C37.4350937,26.254396 37.1260448,25.5452374 36.601887,24.5897108 C35.3697758,22.2798411 34.0287487,20.6314898 32.5801672,19.6432956 C31.4079597,18.8443012 30.0669326,18.1963943 28.5570859,17.7036584 C27.0458777,17.2095614 25.5986575,16.9631934 24.2113412,16.9631934 C23.0091819,16.9631934 21.9608663,17.1551154 21.0663944,17.5416817 C20.1732839,17.9268869 19.5102584,18.5189866 19.0786791,19.3207034 C18.8009435,19.8134393 18.6008105,20.2449235 18.4769187,20.615156 C18.2618098,21.2317564 18.1542553,21.8796633 18.1542553,22.5561543 C18.1542553,23.5729326 18.5245694,24.4821801 19.2638361,25.2838968 C20.1882599,26.2707297 21.6218655,27.0724465 23.5632915,27.6876858 L34.660461,31.2470902 C37.5889374,32.2026167 39.8775329,33.7434373 41.5262475,35.8695519 C43.174962,37.9970277 44,40.6308509 44,43.7751049 Z" id="Fill-1" fill="#7EB334"></path>
                <path d="M84,30.849775 L82.8216476,31.2132791 C82.3759287,29.615489 81.604595,28.1519783 80.5036428,26.8200344 C79.2732453,25.3307529 77.9440958,24.233459 76.5175287,23.5281527 C75.0896271,22.8228464 73.4348626,22.4688368 71.5478973,22.4688368 L71.5879319,49.6638216 L71.5879319,50.4613603 C71.5879319,51.3931785 71.6599942,52.2300516 71.8041189,52.9746923 C71.9482435,53.7179767 72.2485032,54.3825923 72.7075669,54.9671827 C73.1652961,55.5531295 73.6697324,55.9451171 74.2195412,56.1431454 C74.7693501,56.3438865 75.4632836,56.4429006 76.3013417,56.4429006 L76.3013417,58 L54.7773931,58 L54.7773931,56.482235 C54.9081728,56.4564642 55.0909976,56.4429006 55.3272019,56.4429006 C56.3480848,56.4429006 57.3169227,56.0047969 58.2337156,55.1285894 C58.7835245,54.5982533 59.1104739,54.0529972 59.2158984,53.4955339 C59.3199885,52.9380707 59.3720335,52.087634 59.3720335,50.9455803 L59.3720335,22.4688368 C57.8013417,22.4688368 56.4521749,22.6885669 55.3272019,23.1293834 C54.2008945,23.5674871 52.9825074,24.320266 51.6733752,25.3836509 C51.0194763,25.9424706 50.3642429,26.7549292 49.7103441,27.8196705 C48.924331,29.0960037 48.4132222,30.1892285 48.1783524,31.0925632 L47,30.8524878 L49.827779,17 C50.1680733,17.3187442 50.6004472,17.598154 51.1235663,17.8382295 C51.3330809,17.9182546 51.6280026,17.9725089 52.0083315,17.9982797 C52.387326,18.0254069 52.6035129,18.0389705 52.655558,18.0389705 L53.7952103,18.0389705 L77.3622593,18.0389705 C77.7545986,18.0389705 78.1082378,18.0308323 78.4218423,18.0159124 C78.7367814,18.0009925 79.1744933,17.9114728 79.737647,17.7446407 C80.3008007,17.5805214 80.8439371,17.3309514 81.3683907,17 L84,30.849775 Z" id="Fill-3" fill="#7EB334"></path>
                <path d="M114.011376,26.5914059 C114.011376,25.2052135 113.425916,24.1136379 112.254994,23.3139637 C111.24778,22.6215464 109.968646,22.2753377 108.417592,22.2753377 C107.356271,22.2753377 106.361543,22.4626977 105.436182,22.8347023 C104.918701,23.0492159 104.557991,23.4008553 104.354051,23.8936936 C104.150111,24.3865318 104.047447,24.9662616 104.047447,25.6315254 L104.047447,35.6620732 L105.477802,35.2221845 C107.54495,34.5311248 109.369312,33.5182948 110.948113,32.1850519 C112.990289,30.4540086 114.011376,28.5899124 114.011376,26.5914059 L114.011376,26.5914059 Z M133,58 L112.418701,58 L112.418701,56.5608581 C113.153996,56.4821126 113.819922,56.2675989 114.419256,55.9227479 C114.74667,55.7367456 114.90899,55.3756025 114.90899,54.8433915 C114.90899,54.1238205 114.609323,53.1109904 114.011376,51.8062589 C113.603496,50.9278393 112.472808,48.8628063 110.622087,45.6125178 C110.078246,44.6797909 109.390122,43.653384 108.560488,42.5346548 C107.729467,41.4159256 106.90677,40.3107732 106.089623,39.2191976 L103.925361,40.2170932 L103.925361,51.4872039 C103.925361,52.3398276 103.986404,53.0376756 104.108491,53.5848211 C104.231964,54.1306089 104.456715,54.6030819 104.782741,55.0035979 C105.218368,55.5358088 105.640122,55.8955943 106.04939,56.0829543 C106.238069,56.1616998 106.715316,56.2811758 107.478357,56.4413821 L107.478357,58 L88,58 L88,56.4413821 C88.4619867,56.4413821 88.8365705,56.3816442 89.1237514,56.2621682 C89.409545,56.1426923 89.7563818,55.9227479 90.1642619,55.6023352 C90.7094895,55.1787387 91.0618757,54.6859005 91.22697,54.1265359 C91.3892897,53.5671713 91.4711432,52.8353812 91.4711432,51.9311656 L91.5529967,25.7849433 C91.5529967,24.9608309 91.5391232,24.3213631 91.5113762,23.8692553 C91.4031632,22.4586247 91.1922863,21.486525 90.8787458,20.9556717 C90.5665927,20.4234607 90.2058824,20.0582445 89.7966149,19.8573077 C89.3887347,19.6590863 88.8990011,19.5572602 88.327414,19.5572602 L88.327414,18 L116.910932,18 C120.096282,18 122.525527,18.4779037 124.200055,19.4364266 C125.873196,20.3949494 126.833241,21.7784264 127.077414,23.5882153 C127.132908,24.0688344 127.160655,24.4136854 127.160655,24.6268414 C127.160655,26.5968366 126.38374,28.4459982 124.832686,30.1756839 C123.715871,31.4003123 122.259156,32.5312606 120.462542,33.568529 C119.101554,34.3396918 118.312153,34.7252732 118.09434,34.7252732 C119.537181,36.5092662 120.796892,38.1656371 121.872087,39.6957437 C122.947281,41.2272079 124.069645,42.9501052 125.240566,44.8657932 C125.86626,45.9044193 126.915094,48.2070464 128.384295,51.7723169 C129.473363,54.3817799 130.370977,55.8317833 131.079911,56.1236847 C131.596004,56.3368407 132.236959,56.5092662 133,56.6423189 L133,58 Z" id="Fill-5" fill="#7EB334"></path>
                <path d="M159.512149,40.384088 L154.997618,26.2356934 L151.146022,37.467789 C151.466532,37.467789 151.869223,37.4813658 152.352727,37.5071618 C152.834862,37.5343154 153.545736,37.6809449 154.48398,37.9470504 C155.422225,38.2131559 156.441282,38.625891 157.541151,39.1852556 C158.345164,39.6129251 159.00262,40.0120834 159.512149,40.384088 L159.512149,40.384088 Z M181,58 L160.116186,58 L160.116186,56.4454552 C160.814733,56.3110447 161.339328,56.152196 161.688602,55.9661937 C162.763816,55.3294413 163.302108,54.292173 163.302108,52.8571041 C163.302108,52.3778426 163.274714,52.005838 163.221296,51.7397325 C163.032277,50.4906659 162.237851,49.0949698 160.839388,47.5526441 C159.332718,45.8786233 157.652096,44.6295567 155.796153,43.806802 C155.068842,43.4863892 154.000476,43.1999185 152.586946,42.9487475 C151.174786,42.6962189 150.01191,42.5685968 149.096951,42.5685968 L146.252084,50.6888874 C145.900071,51.6474102 145.72475,52.6996131 145.72475,53.8441382 C145.72475,54.4035028 145.790495,54.7904419 145.926096,55.0035979 C146.247975,55.4828593 146.612315,55.8358564 147.013637,56.0625891 C147.417699,56.2879642 147.873809,56.4413821 148.384707,56.5214853 L148.384707,58 L135,58 L135,56.4807549 C135.538292,56.3205485 135.940984,56.1549114 136.209445,55.9811282 C136.477906,55.8087027 136.881968,55.4964361 137.41889,55.0429706 C138.117437,54.483606 138.642032,53.9568257 138.991305,53.4639875 C139.339209,52.9711493 139.676155,52.2855203 139.998035,51.405743 L151.166567,22.993551 C151.300798,22.674496 151.421332,22.3554409 151.529538,22.0350282 C151.636374,21.7159731 151.691162,21.422714 151.691162,21.1566085 C151.691162,20.7832462 151.603502,20.4709796 151.42955,20.2170932 C151.254228,19.9645645 151.078907,19.7975698 150.904955,19.7174666 C150.729633,19.6373634 150.548833,19.5721947 150.359814,19.5178874 L150.359814,18 L168.2207,18 L168.2207,19.758197 C167.574202,19.758197 167.130419,19.9849297 166.889352,20.4370375 C166.782515,20.6488358 166.729097,20.8619917 166.729097,21.0751476 C166.729097,21.2883036 166.768818,21.5272554 166.848261,21.7947186 C166.875655,21.8476682 166.970164,22.112416 167.130419,22.5916774 L177.612732,53.7681081 C177.800381,54.0885208 177.946939,54.3410495 178.057885,54.5270518 C178.404419,55.0850587 178.742735,55.4787862 179.063244,55.7041613 C179.386494,55.930894 179.680979,56.0897427 179.95081,56.1834227 C180.219271,56.2771027 180.569914,56.3639943 181,56.4427398 L181,58 Z" id="Fill-7" fill="#7EB334"></path>
                <path d="M223,19.5559553 C222.672393,19.6089067 222.344786,19.661858 222.018567,19.7148094 C221.527156,19.8492244 221.078778,20.1682903 220.670658,20.6733648 C220.180635,21.2856997 219.87385,22.0378806 219.750304,22.9285496 C219.628145,23.8219341 219.567066,24.6392858 219.567066,25.384678 L219.567066,51.9730491 C219.567066,52.3980177 219.608711,52.899019 219.689224,53.4706222 C219.771126,54.0422253 219.941871,54.5418689 220.200069,54.9668375 C220.459656,55.3931638 220.82752,55.7325956 221.303661,55.9851329 C221.779802,56.2390279 222.304529,56.3910933 222.876453,56.4440447 L222.876453,58 L210.537047,58 L210.537047,56.4440447 C210.891029,56.4440447 211.245011,56.3910933 211.600382,56.2851906 C212.934409,55.8588643 213.600729,54.7686093 213.600729,53.0130681 C213.600729,51.8413496 213.316155,50.7361597 212.745619,49.6988561 C212.365261,48.9806184 211.630921,47.9962663 210.542599,46.7444418 L191.784314,25.1918808 L191.742669,51.9350328 C191.742669,52.6003191 191.789866,53.1651336 191.884262,53.630834 C191.977269,54.0965344 192.139684,54.5418689 192.368732,54.9668375 C192.597779,55.3945216 192.912893,55.7190184 193.315461,55.9457588 C193.719417,56.1711415 194.244144,56.338142 194.889641,56.4440447 L194.889641,58 L183,58 L183,56.4440447 C183.517786,56.3910933 183.871768,56.3449306 184.061947,56.3041988 C184.252126,56.2648247 184.510324,56.1507756 184.837932,55.964767 C185.409856,55.6199043 185.819365,54.9070975 186.06507,53.8290621 C186.307999,52.7510268 186.431546,51.5345032 186.431546,50.1767761 L186.431546,25.7051017 L186.431546,24.7071722 C186.431546,23.8558773 186.376019,23.0439564 186.267742,22.2727674 C186.159466,21.5015784 185.967899,20.9679916 185.695818,20.6747225 C185.123894,20.0637453 184.334027,19.691728 183.326219,19.5573131 L183.326219,18 L206.69738,18 L206.69738,19.5573131 C206.425299,19.5573131 206.186535,19.6319881 205.981086,19.7772649 C205.778414,19.9238994 205.579906,20.1234853 205.388339,20.3760225 C205.199549,20.6299175 205.102377,20.8892434 205.102377,21.1567157 C205.102377,21.5287329 205.225924,21.9428397 205.471629,22.3949628 C205.579906,22.608126 205.771473,22.8878178 206.043554,23.2340382 L214.255943,33.3043006 L214.255943,24.2740572 L214.255943,23.7934218 C214.255943,23.0738264 214.214298,22.5280201 214.131008,22.1546451 C214.049106,21.7826279 213.84227,21.3766675 213.511886,20.9367639 C213.181503,20.4955025 212.788652,20.1764366 212.333333,19.9782085 C211.879403,19.7772649 211.32136,19.637419 210.659205,19.5573131 L210.659205,18 L223,18 L223,19.5559553 Z" id="Fill-9" fill="#7EB334"></path>
                <path d="M272,35.3726479 C270.889916,35.3726479 269.930141,35.8225737 269.117918,36.7224254 C268.684916,37.1723513 268.409119,37.6614599 268.286389,38.1911023 C268.165038,38.7207448 268.104363,39.3963091 268.104363,40.2150931 L268.104363,52.0455759 L268.104363,53.5547866 C268.158143,54.0047125 268.319485,54.4681496 268.589766,54.9437469 C268.861427,55.4206953 269.164804,55.7584775 269.502655,55.9557423 C269.841886,56.1557093 270.335563,56.3340583 270.985066,56.4921404 L270.985066,58 L250.691899,58 C245.821319,58 241.938092,57.5244027 239.043599,56.5691547 C235.443065,55.3761081 232.399642,53.2291646 229.910571,50.1269731 C228.313705,48.1381117 227.09606,45.9303674 226.257636,43.5050914 C225.419212,41.0798155 225,38.5937387 225,36.0482122 C225,33.3175812 225.512983,30.7531389 226.541707,28.3535344 C227.569052,25.9539298 229.139718,23.8542758 231.249567,22.050519 C233.279435,20.3548525 235.633366,19.1145164 238.311358,18.3322129 C240.990729,17.5512605 243.926591,17.1594332 247.118945,17.1594332 C248.850952,17.1594332 250.475398,17.2459054 251.989526,17.4174988 C253.505032,17.5904432 255.237039,17.8755314 257.185547,18.2727632 C258.185312,18.4848904 259.105096,18.5902785 259.946278,18.5902785 C260.892263,18.5902785 261.663117,18.4321964 262.258839,18.1146812 C262.71942,17.7417696 263.192413,17.3715604 263.679195,17 L265.343632,30.6788268 L264.330077,31.1963091 C263.869495,29.9194925 262.880762,28.402175 261.365255,26.6443566 C260.201391,25.2864722 259.038905,24.3420333 257.87504,23.8083375 C254.979169,22.5044983 252.396327,21.8519031 250.123757,21.8519031 C246.577003,21.8519031 243.77766,23.3367935 241.721591,26.3052233 C240.017164,28.7710331 238.97465,31.9529412 238.595429,35.8509474 C238.569228,36.087395 238.548543,36.3130334 238.534753,36.5265118 C238.522343,36.738639 238.515448,37.0034602 238.515448,37.3209754 C238.515448,41.3243697 239.556582,44.9710661 241.640231,48.257011 C244.075522,52.1279947 247.267875,54.062811 251.220051,54.062811 C252.97688,54.062811 254.275885,53.5223595 255.115688,52.4374032 C255.818971,51.5105289 256.170613,50.2661394 256.170613,48.7055858 L256.170613,39.2220135 C256.170613,38.3235129 256.109938,37.7019937 255.988587,37.3574559 C255.867236,37.0129181 255.64384,36.6832427 255.318399,36.3643763 C254.695097,35.783391 253.991814,35.4915472 253.207171,35.4915472 L252.557668,35.4915472 L252.557668,34.0201681 L272,34.0201681 L272,35.3726479 Z" id="Fill-11" fill="#7EB334"></path>
                <path d="M313,44.5336818 L307.667038,60 L306.271771,59.5979745 C305.806217,59.4621366 305.287696,59.3688337 304.71342,59.3139497 C304.139143,59.2590657 303.535596,59.2329958 302.906959,59.2329958 L273,59.2329958 L273,57.6989873 C273.820992,57.5645214 274.346482,57.4355439 274.579259,57.3147991 C274.812036,57.1940542 275.092205,56.959425 275.419765,56.6081673 C275.857442,56.0977458 276.139004,55.5790918 276.261665,55.0535773 C276.382932,54.5280627 276.445656,53.8488729 276.445656,53.0146357 L276.445656,24.340477 L276.445656,23.8959164 C276.445656,23.1961451 276.410809,22.6651421 276.34251,22.3015354 C276.27421,21.9379288 276.07628,21.5743221 275.747326,21.2107155 C275.419765,20.8471088 275.092205,20.617968 274.763251,20.5246651 C274.43569,20.4313623 273.970136,20.3819667 273.367983,20.3819667 L273.367983,18.8081673 L300.445378,18.8081673 L301.184131,18.8081673 C302.196083,18.8081673 303.358574,18.7052597 304.670209,18.4994446 C305.354602,18.3979092 305.723978,18.3471415 305.778339,18.3471415 C306.052932,18.2950016 306.420915,18.1797452 306.886469,18 L309.881904,31.649657 L308.528452,32.6608951 C307.898421,29.9935315 306.518486,27.7336818 304.383071,25.8744855 C303.153675,24.8262006 301.690107,24.0317543 299.995156,23.4925188 C298.297418,22.9532832 296.630345,22.6843515 294.989755,22.6843515 C293.156811,22.6843515 291.803359,23.0081673 290.928006,23.6544267 C290.35373,24.0852663 289.949507,24.6094087 289.718124,25.2295982 C289.485347,25.8484156 289.368261,26.5756289 289.368261,27.4098661 L289.368261,31.8129369 L295.130536,31.8129369 C295.674147,31.8129369 296.199638,31.7388435 296.70422,31.5892845 C297.207408,31.4424698 297.691083,31.1803986 298.153849,30.8016988 C299.080775,29.9935315 299.543541,29.0111075 299.543541,27.8544267 L299.543541,27.2479582 L300.774332,26.8857236 L303.523051,42.27246 L301.963306,42.5139497 C301.854584,41.9760862 301.581385,41.2900359 301.142315,40.4530546 C300.595916,39.4308396 299.979824,38.6226723 299.296825,38.031297 C298.613827,37.4385495 297.833258,36.9596864 296.957905,36.5974518 C296.082552,36.2338451 295.343799,36.0513558 294.743039,36.0513558 L289.492316,36.0513558 L289.492316,47.6016988 L289.492316,48.5704018 L289.492316,49.2180333 C289.492316,50.1071545 289.560616,50.8604378 289.697216,51.4792551 C289.833815,52.0994446 290.147437,52.7443319 290.640868,53.4180333 C291.132906,54.0917347 291.829843,54.5952957 292.733073,54.9314603 C293.63491,55.2689971 294.67474,55.4363933 295.849775,55.4363933 C297.136321,55.4363933 298.454926,55.2497877 299.809771,54.8710879 C301.163223,54.4951323 302.400983,53.9956877 303.523051,53.3768703 C305.190124,52.4356093 306.790292,51.1019275 308.323553,49.3785691 C310.046381,47.468605 311.139178,45.6231297 311.604732,43.8462594 L313,44.5336818 Z" id="Fill-13" fill="#7EB334"></path>
                <path d="M344.480415,21.8806295 C344.480415,20.2879835 343.816785,19.0322695 342.489526,18.1134873 C341.347593,17.3164877 339.899054,16.9173114 338.139823,16.9173114 C336.936568,16.9173114 335.810987,17.1324607 334.761716,17.5614061 C334.17576,17.8063245 333.766953,18.2122665 333.535296,18.7792322 C333.303639,19.346198 333.187811,20.0119429 333.187811,20.7791734 L333.187811,32.3119871 L334.808048,31.8072658 C337.151873,31.0102662 339.220435,29.8465657 341.009646,28.314811 C343.322129,26.3229887 344.480415,24.1782615 344.480415,21.8806295 L344.480415,21.8806295 Z M366,58 L342.674852,58 L342.674852,56.3464627 C343.507455,56.2544492 344.263747,56.0095308 344.943729,55.6117076 C345.313018,55.3979115 345.498343,54.9838506 345.498343,54.3708781 C345.498343,53.5427563 345.157671,52.3790557 344.480415,50.8784233 C344.0171,49.8676276 342.737535,47.4928666 340.638994,43.7554935 C340.021696,42.6824533 339.242238,41.5038682 338.301983,40.2170319 C337.360364,38.9301956 336.428285,37.6582439 335.501657,36.4011766 L333.048816,37.5513458 L333.048816,50.5103692 C333.048816,51.4913958 333.118313,52.2965142 333.25867,52.921665 C333.396302,53.5508751 333.651125,54.0948375 334.020414,54.553552 C334.51507,55.1678776 334.993374,55.5805854 335.455325,55.7943815 C335.67063,55.8877482 336.211618,56.0244154 337.075562,56.2084424 L337.075562,58 L315,58 L315,56.2084424 C315.524635,56.2084424 315.949794,56.1394323 316.274114,56.0027651 C316.597072,55.8647448 316.990889,55.6117076 317.45284,55.2436535 C318.070138,54.7551699 318.472132,54.1895573 318.657457,53.5454626 C318.842783,52.9040741 318.934083,52.0624209 318.934083,51.0218562 L319.026746,20.9537285 C319.026746,20.0051772 319.011757,19.2704221 318.980415,18.7508163 C318.85641,17.1284012 318.617939,16.0120606 318.26364,15.4004412 C317.907978,14.7888219 317.499172,14.3666422 317.03722,14.1366083 C316.573906,13.9079276 316.017929,13.7929107 315.372014,13.7929107 L315.372014,12 L347.765858,12 C351.375621,12 354.129616,12.5520812 356.026479,13.6535373 C357.923342,14.7549934 359.010768,16.3462862 359.288756,18.4274158 C359.350077,18.9781438 359.382782,19.3759671 359.382782,19.6208854 C359.382782,21.8873952 358.502485,24.0145315 356.743253,26.0036476 C355.478678,27.4109134 353.828461,28.7112811 351.791241,29.9047507 C350.248677,30.7924106 349.354753,31.2362406 349.108107,31.2362406 C350.743334,33.2876011 352.170069,35.1928225 353.388313,36.9532578 C354.60792,38.7123401 355.879309,40.6933373 357.206568,42.8962494 C357.915166,44.0910722 359.103431,46.7378144 360.769999,50.8391822 C362.003233,53.839094 363.021162,55.5075158 363.823786,55.8430946 C364.409742,56.0880129 365.134692,56.2869245 366,56.4398294 L366,58 Z" id="Fill-15" fill="#7EB334"></path>
                <path d="M71.854675,85.6505957 C71.854675,84.0281806 71.1156076,82.7413443 69.6374728,81.7900868 C68.3482725,80.9633181 66.7437183,80.5492572 64.8251993,80.5492572 C63.4095796,80.5492572 62.2148466,80.7657597 61.239611,81.193352 C60.6422445,81.4396235 60.2254772,81.8590969 59.989309,82.4571849 C59.7531409,83.0539197 59.6350568,83.7372555 59.6350568,84.5017797 L59.6350568,95.6232387 L61.1451438,95.4392116 C63.5346098,95.133402 65.8309978,94.091484 68.0343078,92.314811 C70.5807562,90.2620974 71.854675,88.0415944 71.854675,85.6505957 M86.7638318,82.2501544 C86.8263469,82.4341815 86.8819159,82.7548757 86.9291496,83.2149434 C86.9763832,83.675011 87,84.118841 87,84.5491396 C87,87.3974996 85.6788475,89.9089278 83.0365426,92.0847772 C80.8346219,93.8925724 77.6116212,95.5461097 73.364762,97.0480953 C70.6279899,98.0277688 66.6659217,99.1765848 61.4757792,100.494543 L59.4002778,101.000618 L59.4461223,114.372349 C59.4461223,115.353375 59.4864098,116.157141 59.5642063,116.784998 C59.6420029,117.414208 59.9254047,118.025827 60.4144117,118.622562 C60.9006403,119.22065 61.4118748,119.626592 61.9467263,119.841741 C62.0106306,119.871511 62.5760449,120.009531 63.6457478,120.254449 L63.6457478,122 L41,122 L41,120.254449 C41.5959773,120.131313 42.0919304,119.986527 42.4850809,119.817385 C42.8782315,119.649596 43.2477652,119.381674 43.5950713,119.01362 C44.1604856,118.433123 44.521684,117.864804 44.6786663,117.312722 C44.8370379,116.761994 44.9148345,115.964995 44.9148345,114.92443 L44.9148345,84.8698338 C44.8828823,84.3488748 44.8676009,83.9348139 44.8676009,83.6290043 C44.7106185,81.7900868 44.3647016,80.4423592 43.8298502,79.5858214 C43.4533704,78.9417267 43.0518845,78.4816591 42.6267818,78.2069716 C42.2030684,77.930931 41.6751631,77.7929107 41.0472336,77.7929107 L41.0472336,76 L74.7331481,76 C77.5629983,76 79.7968712,76.2625092 81.4319884,76.782115 C84.4202102,77.7306663 86.1970283,79.5546992 86.7638318,82.2501544" id="Fill-17" fill="#7EB334"></path>
                <path d="M131,103.805591 L125.092221,123 C124.600246,122.616921 124.146324,122.353892 123.730456,122.208214 C123.315946,122.059838 122.929977,121.965417 122.576624,121.922253 C122.223272,121.876392 121.7843,121.85481 121.261067,121.85481 L120.661727,121.85481 L120.430689,121.85481 L89,121.85481 L89,120.068907 C90.0763655,120.068907 90.9529511,119.718201 91.6297567,119.01544 C92.0605747,118.559522 92.3378203,118.055045 92.4614937,117.506056 C92.5838079,116.957066 92.6449651,116.22463 92.6449651,115.308748 L92.6449651,83.0033291 L92.6449651,82.2021008 C92.6449651,81.9444668 92.6612736,81.6773907 92.6925317,81.4022213 C92.6925317,80.9139307 92.6531193,80.5173631 92.5770127,80.2125187 C92.499547,79.9076742 92.3228708,79.5866433 92.0456252,79.2507749 C91.6447062,78.7638331 91.2451463,78.3969406 90.8455863,78.1527953 C90.4460264,77.9099989 89.9690008,77.7872518 89.4145094,77.7872518 L89.4145094,76 L111.153831,76 L111.153831,77.7872518 C110.568082,77.877626 110.053003,78.0381414 109.607235,78.2674492 C109.161468,78.496757 108.722495,78.847463 108.291677,79.322265 C107.860859,79.7943692 107.576819,80.3514522 107.438196,80.9935139 C107.299573,81.6342268 107.230261,82.4435484 107.230261,83.4214786 L107.184054,112.326398 C107.184054,113.579497 107.268315,114.525055 107.438196,115.167116 C107.606718,115.807829 108.076948,116.297469 108.846169,116.633337 C109.368043,116.877482 109.922534,117.060929 110.506925,117.182327 C111.091315,117.305074 111.706963,117.365773 112.35387,117.365773 C113.831155,117.365773 115.345133,117.083859 116.899884,116.518683 C118.453275,115.953507 120.031129,115.136092 121.630727,114.066439 C123.230326,112.998135 124.783717,111.395678 126.29226,109.25772 C127.614613,107.394932 128.722237,105.379721 129.615131,103.210739 L131,103.805591 Z" id="Fill-19" fill="#7EB334"></path>
                <path d="M162.241135,101.742139 L157.039613,85.4733343 L152.602658,98.3877041 C152.971948,98.3877041 153.436981,98.4039418 153.992284,98.435064 C154.547587,98.4648331 155.366865,98.6339756 156.448748,98.9397853 C157.529265,99.2455949 158.702787,99.7205471 159.970684,100.363289 C160.896645,100.854479 161.654374,101.314546 162.241135,101.742139 L162.241135,101.742139 Z M187,122 L162.937316,122 L162.937316,120.211149 C163.742916,120.059597 164.347458,119.874217 164.749574,119.660421 C165.987381,118.928372 166.606968,117.736255 166.606968,116.085424 C166.606968,115.534696 166.57551,115.107104 166.515329,114.799941 C166.29649,113.365613 165.382839,111.759435 163.771639,109.986822 C162.034606,108.061303 160.097884,106.624268 157.958735,105.67707 C157.121677,105.310369 155.889342,104.981556 154.263097,104.691984 C152.635484,104.401059 151.295097,104.25492 150.241935,104.25492 L146.963458,113.591587 C146.557239,114.694396 146.354813,115.905457 146.354813,117.220709 C146.354813,117.864804 146.431406,118.308634 146.587329,118.554905 C146.959355,119.105633 147.376516,119.511575 147.841548,119.771378 C148.306581,120.032534 148.831794,120.207089 149.42129,120.300456 L149.42129,122 L134,122 L134,120.254449 C134.618219,120.070422 135.083252,119.878276 135.392361,119.679365 C135.701471,119.480453 136.166503,119.120518 136.78609,118.599559 C137.59169,117.955464 138.194865,117.35061 138.596981,116.783645 C138.999097,116.216679 139.386168,115.427798 139.758194,114.417003 L152.62591,81.74408 C152.780465,81.3760259 152.919974,81.0093249 153.044439,80.6412708 C153.167535,80.2745698 153.230452,79.9376379 153.230452,79.6304751 C153.230452,79.2015296 153.129239,78.8415944 152.928181,78.5493161 C152.725755,78.2597441 152.524697,78.0675982 152.325006,77.9769378 C152.122581,77.8835711 151.913316,77.8091484 151.697213,77.746904 L151.697213,76 L172.27489,76 L172.27489,78.0215914 C171.530839,78.0215914 171.019303,78.2827475 170.741652,78.8023533 C170.617187,79.0472717 170.555639,79.29219 170.555639,79.5371084 C170.555639,79.7820268 170.60351,80.0580674 170.693781,80.3625239 C170.726606,80.4247683 170.836026,80.730578 171.019303,81.2813061 L183.097832,117.134108 C183.313935,117.500809 183.484903,117.791734 183.608,118.006883 C184.010116,118.648272 184.398555,119.100221 184.769213,119.361377 C185.141239,119.619826 185.483174,119.805207 185.792284,119.912105 C186.100026,120.019003 186.50351,120.117782 187,120.209796 L187,122 Z" id="Fill-21" fill="#7EB334"></path>
                <path d="M235,77.7915576 L233.873763,77.9742315 C233.307877,78.1271363 232.791801,78.4951905 232.321382,79.0756876 C231.758264,79.7806736 231.40545,80.6439771 231.265708,81.6696573 C231.123199,82.6953375 231.052636,83.63577 231.052636,84.4923077 L231.052636,115.067863 C231.052636,115.5577 231.101062,116.132784 231.195145,116.79041 C231.287846,117.448036 231.484314,118.020415 231.781785,118.511605 C232.079255,119.001441 232.501248,119.391146 233.050531,119.682071 C233.59843,119.972996 234.201672,120.148904 234.858874,120.209796 L234.858874,122 L220.670226,122 L220.670226,120.211149 C221.076999,120.211149 221.482389,120.148904 221.890547,120.027122 C223.426324,119.537285 224.192829,118.282924 224.192829,116.264039 C224.192829,114.917664 223.86492,113.647066 223.209102,112.453596 C222.770506,111.628181 221.92652,110.495602 220.67576,109.055861 L199.101543,84.2717458 L199.055885,115.024562 C199.055885,115.789087 199.108461,116.439947 199.217764,116.974437 C199.325684,117.511634 199.511084,118.021768 199.773965,118.512958 C200.035462,119.001441 200.399344,119.376261 200.864228,119.636064 C201.327729,119.895867 201.930971,120.088013 202.672572,120.211149 L202.672572,122 L189,122 L189,120.211149 C189.594941,120.148904 190.001714,120.096132 190.221704,120.048772 C190.44031,120.002765 190.737781,119.874217 191.114116,119.657714 C191.771318,119.259891 192.241736,118.442594 192.523987,117.203118 C192.804855,115.963642 192.94598,114.563142 192.94598,113.001618 L192.94598,84.8630681 L192.94598,83.7142521 C192.94598,82.7345786 192.883719,81.802265 192.759196,80.9146051 C192.63329,80.0269451 192.4133,79.4139726 192.100611,79.0770407 C191.443408,78.374761 190.53301,77.9458156 189.374951,77.7929107 L189.374951,76 L216.252444,76 L216.252444,77.7929107 C215.939754,77.7929107 215.664421,77.8768054 215.429212,78.0445948 C215.195386,78.2137373 214.967095,78.442418 214.748489,78.7346963 C214.528499,79.0256214 214.419196,79.3246654 214.419196,79.6304751 C214.419196,80.0607736 214.561705,80.5343727 214.842572,81.0553317 C214.967095,81.3016032 215.187085,81.6222974 215.499774,82.0201206 L224.944115,93.6016473 L224.944115,83.2149434 L224.944115,82.6642153 C224.944115,81.8360935 224.897073,81.2082365 224.80299,80.7792911 C224.707522,80.3516988 224.47093,79.8835123 224.089061,79.3774379 C223.709959,78.8727166 223.258911,78.5046625 222.735916,78.2746286 C222.212921,78.0445948 221.570939,77.8835711 220.809968,77.7929107 L220.809968,76 L235,76 L235,77.7915576 Z" id="Fill-23" fill="#7EB334"></path>
                <path d="M280,90.8768851 L278.628989,91.2919319 C278.112844,89.4606055 277.214967,87.7842479 275.938045,86.2574689 C274.506549,84.5501176 272.962146,83.2915018 271.303492,82.4829692 C269.644838,81.6744366 267.720046,81.2688228 265.529118,81.2688228 L265.574818,112.444492 L265.574818,113.359482 C265.574818,114.425397 265.658154,115.384856 265.82617,116.237858 C265.992842,117.092207 266.343659,117.853575 266.875934,118.524657 C267.408209,119.195739 267.994248,119.644475 268.632709,119.873559 C269.272514,120.101296 270.077647,120.214491 271.053484,120.214491 L271.053484,122 L246.036573,122 L246.036573,120.261655 C246.189803,120.230661 246.402176,120.214491 246.676378,120.214491 C247.863243,120.214491 248.989622,119.7132 250.055516,118.707925 C250.692632,118.100178 251.073021,117.474913 251.195336,116.837519 C251.316308,116.197431 251.378138,115.223149 251.378138,113.914674 L251.378138,81.2688228 C249.552812,81.2688228 247.985558,81.522163 246.676378,82.0248007 C245.367197,82.5287861 243.953174,83.3898733 242.431621,84.6107575 C241.669501,85.2508458 240.908724,86.1820058 240.149292,87.4015425 C239.236629,88.8663341 238.642524,90.1182121 238.368322,91.1544813 L237,90.8795803 L240.285049,75 C240.680223,75.3651872 241.182926,75.6872527 241.791816,75.9608062 C242.035104,76.0524399 242.377856,76.1144274 242.820074,76.1440736 C243.259604,76.1750674 243.5123,76.1898905 243.571442,76.1898905 L244.896752,76.1898905 L272.286049,76.1898905 C272.741709,76.1898905 273.151668,76.1818051 273.51727,76.1642869 C273.882873,76.1467687 274.392298,76.0430071 275.045544,75.8543494 C275.701479,75.6643443 276.331875,75.3800103 276.942109,75 L280,90.8768851 Z" id="Fill-25" fill="#7EB334"></path>
                <g id="Group-29" transform="translate(284.000000, 75.000000)" fill="#7EB334">
                    <path d="M42.725875,32.7756917 C42.725875,36.5350806 41.3565938,39.7554694 38.6180313,42.4368583 C36.36725,44.6241639 33.3854688,46.3187472 29.6740313,47.5206083 C26.6317813,48.5074139 23.72525,49.0001361 20.9584687,49.0001361 C18.7359062,49.0001361 16.2419063,48.815025 13.4737812,48.4461639 C10.7056562,48.0745806 7.87571875,47.7057194 4.9853125,47.3354972 C4.59025,47.3354972 4.262375,47.3586361 4.00571875,47.4049139 C3.74503125,47.4511917 3.44134375,47.590025 3.09196875,47.8214139 C2.74125,48.0528028 2.39859375,48.2896361 2.06534375,48.5373583 L0.284875,29.4014972 L1.92828125,29.2163861 C2.01965625,30.1392194 2.39859375,31.4036917 3.069125,33.0057194 C3.91971875,35.0718861 4.90871875,36.7052194 6.03478125,37.9070806 C7.648625,39.6316083 9.55540625,40.9573306 11.7631875,41.8801639 C13.9682812,42.8057194 16.1209687,43.2684972 18.2199063,43.2684972 C20.5311563,43.2684972 22.5091563,42.7594417 24.1525625,41.7426917 C25.794625,40.7259417 26.7984063,39.2926917 27.16525,37.4443028 C27.2257188,37.1666361 27.2552813,36.7814417 27.2552813,36.2887194 C27.2552813,35.1481083 26.92875,34.1544972 26.2743438,33.306525 C25.6212812,32.4599139 24.7451563,31.8501361 23.6513438,31.481275 L11.6032812,27.4591917 C8.712875,26.5050528 6.46209375,25.086775 4.84959375,23.2070806 C3.08390625,21.142275 2.20240625,18.6459972 2.20240625,15.7182472 C2.20240625,11.6811917 3.75309375,8.26071944 6.85715625,5.45683056 C9.62528125,2.96055278 13.260125,1.24963611 17.764375,0.325441667 C18.8581875,0.110386111 20.0151562,0.00149722222 21.2325938,0.00149722222 C22.8141875,0.00149722222 24.5785313,0.201580556 26.525625,0.601747222 C28.4727188,1.003275 30.4802813,1.40480278 32.5496563,1.80496944 C32.7915313,1.80496944 32.9595,1.78863611 33.0522188,1.75869167 C33.7200625,1.57358056 34.4201563,1.29591389 35.1498125,0.927052778 C35.6994063,0.588136111 36.1240313,0.341775 36.4277188,0.186608333 L37.97975,15.2105528 L36.3376875,15.7182472 C36.2463125,15.2554694 35.9412813,14.5463306 35.4239375,13.5908306 C34.2065,11.281025 32.88425,9.63271944 31.4531563,8.64455278 C30.2975313,7.84558056 28.9752813,7.19769167 27.4837188,6.70496944 C25.9935,6.21088611 24.5624063,5.964525 23.1944688,5.964525 C22.0079375,5.964525 20.97325,6.15644167 20.0904063,6.54299722 C19.2089063,6.92819167 18.5545,7.520275 18.1285312,8.32196944 C17.8544062,8.81469167 17.656875,9.24616389 17.5359375,9.61638611 C17.3222813,10.2329694 17.216125,10.8808583 17.216125,11.5573306 C17.216125,12.5740806 17.581625,13.4833028 18.3112812,14.2849972 C19.2236875,15.2718028 20.6386562,16.0734972 22.5548438,16.6887194 L33.50775,20.248025 C36.3981563,21.203525 38.657,22.7443028 40.285625,24.8703583 C41.9129063,26.997775 42.725875,29.631525 42.725875,32.7756917" id="Fill-27"></path>
                </g>
                <mask id="mask-2" fill="white">
                    <use xlink:href="#path-1"></use>
                </mask>
                <g id="Clip-31"></g>
                <polygon id="Fill-30" fill="#7EB334" mask="url(#mask-2)" points="0 4 367 4 367 0 0 0"></polygon>
                <polygon id="Fill-32" fill="#7EB334" mask="url(#mask-2)" points="0 80 35 80 35 76 0 76"></polygon>
                <polygon id="Fill-33" fill="#7EB334" mask="url(#mask-2)" points="332 80 367 80 367 76 332 76"></polygon>
            </g>
        </g>
    </g>
</svg>