<?xml version="1.0" encoding="UTF-8"?>
<svg width="189px" height="161px" viewBox="0 0 189 161" version="1.1" xmlns="http://www.w3.org/2000/svg" xmlns:xlink="http://www.w3.org/1999/xlink">
    <!-- Generator: Sketch 47.1 (45422) - http://www.bohemiancoding.com/sketch -->
    <title>Group 2</title>
    <desc>Created with Sketch.</desc>
    <defs></defs>
    <g id="Page-1" stroke="none" stroke-width="1" fill="none" fill-rule="evenodd">
        <g id="Desktop-HD-Copy-2" transform="translate(-615.000000, -318.000000)" fill-rule="nonzero" fill="#7EB334">
            <g id="Group-2" transform="translate(615.000000, 318.000000)">
                <path d="M184.977576,79.3515048 L167.887332,79.3515048 L167.887332,66.4160704 L180.108063,66.4160704 C181.270441,66.4160704 182.3308,65.7501038 182.833454,64.7080604 C183.336108,63.666017 183.194742,62.4281329 182.464325,61.519331 L173.557895,50.3702109 L176.613028,50.3702109 C177.720435,50.3702109 178.741467,49.7669236 179.275486,48.7953821 C179.801705,47.8238405 179.754576,46.6408135 179.149823,45.7161662 L171.688625,34.3241507 L172.913854,34.3241507 C173.927024,34.3241507 174.877342,33.8148726 175.434967,32.9765324 C175.992591,32.1303498 176.086849,31.0648192 175.686294,30.1323896 L163.622593,1.83336897 C163.151344,0.720803674 162.05966,0 160.850153,0 C159.640646,0 158.549002,0.720823732 158.077713,1.83336897 L146.014012,30.1323896 C145.613457,31.0647389 145.707714,32.1302896 146.265339,32.9765324 C146.822963,33.8148726 147.773302,34.3241507 148.786451,34.3241507 L150.011681,34.3241507 L142.574007,45.7161662 C141.969254,46.6406932 141.922125,47.8238004 142.448344,48.7953821 C142.974562,49.7669236 143.995574,50.3702109 145.110802,50.3702109 L148.165935,50.3702109 L139.235981,61.519331 C138.505564,62.428173 138.364198,63.6660772 138.866852,64.7080604 C139.369506,65.7501038 140.429785,66.4160704 141.592243,66.4160704 L153.812974,66.4160704 L153.812974,79.4533966 L122.326713,79.4533966 L122.326713,70.4275554 L134.555285,70.4275554 C135.75695,70.3883812 136.82507,69.6362298 137.257152,68.5079997 C137.696974,67.387612 137.422085,66.1183581 136.566002,65.2721353 L129.623141,58.3930404 L131.052569,58.3930404 C132.222808,58.3930404 133.283147,57.7114088 133.77796,56.661523 C134.272753,55.6038148 134.115684,54.3581283 133.361702,53.4569482 L127.329852,46.358425 C128.39013,46.3427562 129.356151,45.7708027 129.890171,44.8619606 C130.41639,43.9531186 130.432093,42.832751 129.929442,41.9081037 L117.865741,19.8449364 C117.331681,18.8812373 116.318511,18.2779501 115.218965,18.2779501 C114.119399,18.2779501 113.106209,18.8812373 112.572189,19.8449364 L100.508487,41.9081037 C99.9979716,42.840453 100.021536,43.9764253 100.571319,44.8932502 C101.121102,45.8099347 102.118549,46.3662274 103.18673,46.3583849 L97.1548789,53.4569081 C96.393036,54.3657702 96.2438282,55.6349439 96.7543238,56.6927725 C97.2726809,57.7583232 98.3643856,58.4242898 99.5502877,58.3929601 L100.979716,58.3929601 L93.9190322,65.2720551 C93.0550903,66.1182177 92.7801987,67.3875117 93.2200212,68.5079194 C93.6598436,69.6361496 94.7201223,70.388303 95.9297296,70.4274752 L108.15046,70.4274752 L108.15046,79.4533163 L80.8100915,79.4533163 L80.8100915,61.6054175 L85.7739025,64.4102477 C86.7006763,64.9978701 87.8237264,65.178066 88.8841258,64.9195258 C89.952266,64.6609655 90.8633369,63.979334 91.4130798,63.0312998 C91.9628628,62.0832655 92.0963678,60.9549552 91.7900704,59.9051496 C91.483773,58.8552637 90.7690591,57.9777514 89.7951564,57.4685736 L50.8474963,34.7635687 C49.5829992,34.0114153 47.9964415,34.0114153 46.7241231,34.7635687 C30.3957022,44.7922811 11.7976968,55.7837499 8.98484378,57.0072528 C6.96638546,57.5557031 5.69406708,59.5613653 6.07889916,61.6142427 C6.46375134,63.674742 8.37220881,65.0930025 10.4535994,64.8735743 C10.995521,64.8735743 11.7023735,64.7560498 16.846758,61.8884277 L16.846758,79.2976707 L4.02123382,79.2976707 C1.79849682,79.2976707 0,81.0918675 0,83.3091557 C0,85.5186816 1.79855714,87.3206406 4.02123382,87.3206406 L16.8310752,87.3206406 L16.8310752,105.732755 C11.6867108,102.865145 10.9797779,102.802566 10.4379166,102.747608 L10.4379166,102.739774 C8.34868459,102.520386 6.44804843,103.938526 6.06321635,105.999105 C5.67836417,108.051782 6.94286125,110.057525 8.96916097,110.606095 C11.7808077,111.828355 30.3782098,122.89909 46.7084403,132.849779 C47.9807788,133.601933 49.5594951,133.601933 50.8318135,132.849779 L89.819686,110.261108 C90.7857271,109.75183 91.5082825,108.874317 91.8146,107.824532 C92.1208973,106.774646 91.9795349,105.646496 91.4297478,104.698381 C90.8878262,103.750347 89.9767554,103.068716 88.9086352,102.810155 C87.840495,102.551595 86.7174649,102.739642 85.7984119,103.319433 L80.8346009,106.210511 L80.8346009,87.3597406 L111.269309,87.3597406 L111.269309,97.5059895 C111.269309,97.9447456 111.096521,98.367837 110.782358,98.6812342 C110.468195,98.9946315 110.044079,99.167005 109.604257,99.167005 L100.132442,99.167005 C99.456995,99.1748394 98.8522417,99.5822538 98.5930732,100.209048 C98.341746,100.828 98.4831186,101.548824 98.9622023,102.01891 L105.4575,108.33379 C105.93659,108.811718 106.085818,109.524699 105.826629,110.151494 C105.575302,110.770446 104.970549,111.185695 104.295102,111.185695 L103.10916,111.185695 C102.457278,111.185695 101.868227,111.553929 101.593336,112.141551 C101.318444,112.729174 101.40484,113.418648 101.821098,113.912241 L107.350295,120.571908 C107.758692,121.065501 107.852949,121.762817 107.578058,122.342597 C107.295325,122.93022 106.706274,123.298454 106.062233,123.298454 C105.473183,123.290619 104.931261,123.588344 104.617103,124.089779 C104.310805,124.583373 104.287241,125.210167 104.554271,125.727288 L113.822008,142.635095 C114.112603,143.175703 114.678089,143.504765 115.290704,143.504765 C115.903319,143.504765 116.468805,143.175703 116.759399,142.635095 L126.011454,125.70382 C126.294187,125.18672 126.278484,124.559925 125.980038,124.05849 C125.681582,123.549212 125.131799,123.235814 124.542769,123.235814 C123.914451,123.220144 123.348965,122.859738 123.081935,122.295623 C122.807043,121.731508 122.877736,121.073363 123.254721,120.571928 L128.681778,113.951373 C129.098036,113.45778 129.184432,112.768306 128.909541,112.180683 C128.634649,111.593061 128.045599,111.224827 127.393717,111.224827 L126.309874,111.224827 C125.634427,111.224827 125.029674,110.809578 124.770505,110.190626 C124.519178,109.563831 124.660548,108.85085 125.139634,108.380764 L131.634932,102.065885 L131.634932,102.058048 C132.114022,101.587942 132.26325,100.867138 132.011923,100.248186 C131.752734,99.6213919 131.147981,99.2139654 130.472554,99.2139654 L120.984855,99.2139654 C120.058081,99.2139654 119.311962,98.461812 119.311962,97.5451275 L119.311962,87.3754114 L156.830073,87.3754114 L156.830073,101.540968 C156.830073,101.979724 156.657285,102.402815 156.343122,102.716212 C156.028959,103.02961 155.604843,103.201983 155.165021,103.201983 L145.111936,103.201983 C144.467916,103.201983 143.878865,103.570217 143.596112,104.142175 C143.321221,104.721955 143.399761,105.411429 143.800311,105.912865 L152.243293,116.560549 C152.65169,117.061985 152.730244,117.743616 152.447491,118.323416 C152.1726,118.903196 151.583549,119.27145 150.939529,119.27145 L148.182772,119.27145 C147.570157,119.263616 147.004671,119.600512 146.714076,120.133298 C146.423482,120.666083 146.447046,121.324207 146.776908,121.833486 L153.892683,132.724065 C154.222544,133.241166 154.25397,133.891468 153.955514,134.432076 C153.66492,134.964841 153.099434,135.293923 152.486819,135.293923 L151.277312,135.293923 C150.727529,135.301757 150.209172,135.575971 149.902875,136.038234 C149.596577,136.500497 149.541587,137.08812 149.753649,137.597378 L159.304079,159.981464 C159.563268,160.600416 160.168021,161 160.843447,161 C161.511033,161 162.115786,160.600416 162.382816,159.981464 L171.933246,137.621447 C172.145306,137.112169 172.090326,136.524546 171.78402,136.062303 C171.477723,135.600039 170.959346,135.317992 170.401721,135.317992 L169.192215,135.317992 C168.5796,135.317992 168.021975,134.981087 167.723519,134.448322 C167.432925,133.915557 167.456489,133.257412 167.786351,132.748134 L174.925649,121.818442 C175.255511,121.301342 175.279076,120.65104 174.988481,120.118255 C174.697887,119.577647 174.132401,119.248585 173.519786,119.248585 L170.763029,119.248585 C170.12685,119.248585 169.545661,118.880351 169.270769,118.308393 C168.995878,117.736436 169.066571,117.062647 169.459265,116.561211 L177.965179,105.929171 C178.365735,105.427736 178.444269,104.746104 178.161528,104.166304 C177.886637,103.586524 177.297586,103.21827 176.653566,103.226112 L166.600481,103.226112 C166.144956,103.241783 165.705133,103.069416 165.375251,102.748184 C165.04539,102.434787 164.864736,101.996031 164.872597,101.54161 L164.872597,87.3760533 L184.978766,87.3760533 C187.201503,87.3760533 189,85.5818564 189,83.3645683 C189,81.1472802 187.201443,79.3530834 184.978766,79.3530834 L184.977576,79.3515048 Z M156.828939,60.398843 L147.843894,60.398843 L156.828939,49.1478312 C157.504386,48.2311467 157.606485,47.0245522 157.095969,46.0138585 C156.585453,45.0031448 155.548739,44.3606855 154.417827,44.3528631 L150.679286,44.3528631 L158.11696,32.9608475 C158.721714,32.0363206 158.768843,30.8532133 158.242624,29.8816317 C157.708564,28.9100901 156.687532,28.3068029 155.580165,28.3068029 L153.349587,28.3068029 L160.850193,10.5999077 L168.350799,28.3068029 L166.120221,28.3068029 C165.012814,28.3068029 163.991782,28.9100901 163.457762,29.8816317 C162.931544,30.8531732 162.978672,32.0362002 163.583426,32.9608475 L171.0211,44.3528631 L167.282559,44.3528631 C166.151587,44.3606975 165.114913,45.0031649 164.604417,46.0138585 C164.093901,47.0245722 164.196,48.2312068 164.871447,49.1478312 L173.856492,60.398843 L164.871447,60.398843 C163.206415,60.398843 161.855522,61.7464613 161.855522,63.4074567 L161.855522,79.4533966 L159.844905,79.4533966 L159.844905,63.4074567 C159.844905,61.7464613 158.494011,60.398843 156.828979,60.398843 L156.828939,60.398843 Z M111.26836,64.410328 L103.430171,64.410328 L110.490854,57.531233 L110.483001,57.531233 C111.346943,56.6850704 111.621835,55.4157764 111.182012,54.2953687 C110.74219,53.1671385 109.681911,52.4149851 108.472304,52.3758129 L105.99824,52.3758129 L112.03009,45.2772897 C112.791933,44.3684276 112.949003,43.099254 112.430645,42.0414254 C111.912288,40.9758747 110.820584,40.309908 109.642523,40.3412377 L108.315194,40.3412377 L115.289622,27.5624518 L122.287574,40.3412377 L120.960245,40.3412377 C119.821412,40.364743 118.800441,41.0228692 118.305628,42.0414254 C117.810835,43.0678039 117.936499,44.2744185 118.627648,45.175398 L124.659499,52.3756124 L122.224843,52.3756124 C121.023178,52.4147865 119.955057,53.1669379 119.515134,54.2951681 C119.083174,55.4155558 119.358055,56.6848097 120.214146,57.5310324 L127.149165,64.4101274 L119.310976,64.4101274 C117.645944,64.4101274 116.295051,65.7577457 116.295051,67.4187411 L116.295051,79.453196 L114.284434,79.453196 L114.284434,67.4187411 C114.284434,65.7577457 112.933541,64.4101274 111.268509,64.4101274 L111.26836,64.410328 Z M24.811833,57.4136965 C30.3018224,54.1856545 37.9829822,49.59451 48.7984927,43.0130672 L72.682611,56.9357281 L72.682611,79.351906 L68.3630016,79.351906 L68.3630016,60.9397918 L56.660608,60.9397918 L56.660608,79.3753732 L24.8747653,79.3753732 L24.8747653,57.3122059 L24.811833,57.4136965 Z" id="Shape"></path>
                <path d="M28,61 L28,77 L51,77 L51,61 L28,61 Z M46.8663301,66.9958037 L41.7282727,66.9958037 L41.7282727,65.2226099 L46.8663301,65.2226099 L46.8663301,66.9958037 Z M37.6178268,65.2226099 L37.6178268,66.9298241 L32.1104459,66.9298241 L32.1104459,65.2226099 L37.6178268,65.2226099 Z M32.1104459,71.1113683 L37.6178268,71.1113683 L37.6178268,72.7196237 L32.1104459,72.7113767 L32.1104459,71.1113683 Z M41.7282727,72.7608583 L41.7282727,71.1773479 L46.8663301,71.1773479 L46.8663301,72.7361133 L41.7282727,72.7361133 L41.7282727,72.7608583 Z" id="Shape"></path>
            </g>
        </g>
    </g>
</svg>